<svg width="1520" height="953" viewBox="0 0 1520 953" fill="none" xmlns="http://www.w3.org/2000/svg">
<path fill-rule="evenodd" clip-rule="evenodd" d="M7.36312 34.6033C0 48.1599 0 65.9066 0 101.4V291.331C0 348.71 0 377.399 11.9417 396.728C22.4031 413.661 38.8009 426.085 57.9323 431.576C79.7707 437.843 107.39 430.081 162.629 414.558L383.378 352.523C417.156 345.393 440.13 352.523 454.581 359.43C467.292 365.506 477.627 375.201 484.104 387.126C491.467 400.683 491.467 418.429 491.467 453.923V825C491.467 869.804 491.467 892.206 500.186 909.319C507.856 924.372 520.094 936.611 535.147 944.281C552.26 953 574.662 953 619.467 953H1411.91C1449.75 953 1468.66 953 1483.11 946.093C1495.83 940.017 1506.16 930.321 1512.64 918.397C1520 904.84 1520 887.093 1520 851.6V101.4C1520 65.9066 1520 48.1599 1512.64 34.6033C1506.16 22.6785 1495.83 12.9834 1483.11 6.90745C1468.66 0 1449.75 0 1411.91 0H108.089C70.2542 0 51.3369 0 36.886 6.90745C24.1746 12.9834 13.8399 22.6785 7.36312 34.6033Z" fill="#F3F3FA"/>
</svg>
