<svg width="577" height="260" viewBox="0 0 577 260" fill="none" xmlns="http://www.w3.org/2000/svg">
<path opacity="0.04" d="M347.3 232.724L346.462 -207.255C346.452 -208.085 346.692 -208.899 347.15 -209.591C347.609 -210.284 348.265 -210.824 349.034 -211.141L397.61 -227.754C398.227 -227.98 398.89 -228.052 399.541 -227.963C400.192 -227.873 400.81 -227.626 401.343 -227.242C401.875 -226.858 402.304 -226.35 402.593 -225.761C402.882 -225.173 403.02 -224.523 402.998 -223.868V249.868C403.02 250.523 402.882 251.173 402.593 251.761C402.304 252.35 401.875 252.858 401.343 253.242C400.81 253.626 400.192 253.873 399.541 253.963C398.89 254.052 398.227 253.98 397.61 253.754L349.871 236.609C349.102 236.292 348.446 235.752 347.988 235.059C347.53 234.367 347.29 233.553 347.3 232.724ZM273.272 206.194V-180.925C273.3 -181.734 273.566 -182.516 274.038 -183.175C274.51 -183.833 275.166 -184.338 275.924 -184.627L311.123 -196.721C311.807 -197.062 312.564 -197.234 313.329 -197.221C314.094 -197.209 314.845 -197.012 315.517 -196.649C316.19 -196.286 316.765 -195.766 317.194 -195.135C317.622 -194.503 317.892 -193.777 317.979 -193.02L318.45 219.019C318.362 219.777 318.093 220.503 317.665 221.135C317.236 221.766 316.661 222.286 315.988 222.649C315.315 223.012 314.565 223.208 313.8 223.221C313.035 223.233 312.278 223.062 311.594 222.721L275.924 209.896C275.166 209.607 274.51 209.102 274.038 208.444C273.566 207.785 273.3 207.003 273.272 206.194ZM205.904 182.663L205.753 -156.981C205.786 -157.786 206.057 -158.564 206.53 -159.218C207.004 -159.871 207.661 -160.371 208.418 -160.656L238.144 -170.906C238.842 -171.264 239.615 -171.45 240.4 -171.449C241.184 -171.448 241.957 -171.26 242.654 -170.9C243.35 -170.54 243.95 -170.02 244.404 -169.381C244.857 -168.743 245.15 -168.006 245.259 -167.231L245.109 193.231C245 194.006 244.706 194.743 244.253 195.381C243.8 196.02 243.2 196.54 242.503 196.9C241.806 197.26 241.033 197.448 240.249 197.449C239.464 197.45 238.691 197.264 237.993 196.906L208.568 186.338C207.811 186.053 207.155 185.553 206.681 184.9C206.207 184.247 205.937 183.468 205.904 182.663ZM91.2696 142.328L90.9661 -116.278C90.9642 -116.862 91.1228 -117.435 91.4249 -117.935C91.727 -118.435 92.1608 -118.843 92.6793 -119.114L113.015 -126.091C113.498 -126.337 114.036 -126.454 114.578 -126.431C115.119 -126.408 115.645 -126.246 116.105 -125.961C116.566 -125.675 116.944 -125.276 117.204 -124.802C117.464 -124.328 117.597 -123.796 117.589 -123.256L116.823 149.255C116.83 149.795 116.697 150.328 116.437 150.802C116.177 151.276 115.799 151.675 115.339 151.96C114.879 152.246 114.352 152.407 113.811 152.43C113.27 152.453 112.731 152.336 112.249 152.091L92.9828 145.164C92.4644 144.892 92.0305 144.485 91.7284 143.985C91.4264 143.485 91.2677 142.911 91.2696 142.328ZM146.229 161.059L145.602 -135.781C145.636 -136.557 145.893 -137.306 146.341 -137.941C146.789 -138.576 147.41 -139.07 148.13 -139.365L168.383 -146.351C171.727 -147.922 175.888 -145.936 175.888 -142.767L177.74 168.767C177.74 171.936 173.58 173.922 170.236 172.351L148.757 164.642C148.037 164.348 147.415 163.854 146.967 163.219C146.519 162.584 146.263 161.834 146.229 161.059ZM41.2696 123.346L40.4436 -97.8779C40.4297 -98.5216 40.5885 -99.1573 40.9033 -99.7195C41.218 -100.282 41.6775 -100.75 42.2343 -101.076L56.8338 -106.093C57.348 -106.336 57.9175 -106.44 58.4846 -106.392C59.0517 -106.345 59.5962 -106.149 60.0627 -105.824C60.5293 -105.499 60.9013 -105.057 61.1411 -104.543C61.3808 -104.028 61.4797 -103.46 61.4277 -102.895L62.9536 128.895C63.0056 129.46 62.9067 130.028 62.667 130.543C62.4272 131.057 62.0552 131.499 61.5887 131.824C61.1221 132.149 60.5776 132.345 60.0105 132.392C59.4434 132.439 58.8739 132.336 58.3597 132.093L43.0603 126.544C42.5034 126.218 42.044 125.75 41.7292 125.188C41.4144 124.625 41.2558 123.99 41.2696 123.346ZM0.000152588 109.05V-83.4559C-0.00296021 -84.173 0.185791 -84.8779 0.546844 -85.4981C0.907928 -86.1183 1.42825 -86.6313 2.05438 -86.9844L10.7481 -89.7671C11.3543 -90.096 12.0366 -90.2605 12.7266 -90.2442C13.4166 -90.2278 14.0902 -90.0313 14.6801 -89.6741C15.27 -89.3169 15.7554 -88.8116 16.088 -88.2087C16.4205 -87.6059 16.5885 -86.9265 16.5751 -86.2386V112.238C16.5885 112.926 16.4205 113.606 16.088 114.208C15.7554 114.811 15.27 115.317 14.6801 115.674C14.0902 116.031 13.4166 116.228 12.7266 116.244C12.0366 116.26 11.3543 116.096 10.7481 115.767L2.05438 112.579C1.42825 112.226 0.907837 111.713 0.546753 111.092C0.185669 110.472 -0.00292969 109.767 0.000152588 109.05Z" fill="white"/>
<path opacity="0.04" d="M456.962 259.701L753.798 215.159C757.908 214.665 761.704 212.718 764.494 209.67C767.285 206.623 768.884 202.678 769 198.554V-172.554C768.884 -176.678 767.285 -180.622 764.494 -183.67C761.704 -186.717 757.908 -188.665 753.798 -189.158L456.962 -233.701C454.466 -234.164 451.899 -234.088 449.435 -233.478C446.971 -232.868 444.668 -231.737 442.68 -230.163C440.693 -228.588 439.068 -226.607 437.915 -224.353C436.763 -222.099 436.11 -219.624 436 -217.097V243.097C436.11 245.624 436.763 248.099 437.915 250.353C439.068 252.607 440.693 254.588 442.68 256.163C444.668 257.737 446.971 258.868 449.435 259.478C451.899 260.088 454.466 260.165 456.962 259.701Z" fill="white"/>
</svg>
